<?xml version="1.0" encoding="UTF-8" standalone="no"?><!DOCTYPE svg PUBLIC "-//W3C//DTD SVG 1.1//EN" "http://www.w3.org/Graphics/SVG/1.1/DTD/svg11.dtd"><svg width="100%" height="100%" viewBox="0 0 45 57" version="1.1" xmlns="http://www.w3.org/2000/svg" xmlns:xlink="http://www.w3.org/1999/xlink" xml:space="preserve" xmlns:serif="http://www.serif.com/" style="fill-rule:evenodd;clip-rule:evenodd;stroke-linejoin:round;stroke-miterlimit:2;"><g><g><path d="M13.941,53.364c-0,1.07 1.042,1.826 2.061,1.497c1.766,-0.571 4.274,-1.306 5.905,-1.459c0.108,-0.011 0.205,-0.011 0.312,-0c1.631,0.153 4.139,0.888 5.905,1.459c1.019,0.329 2.062,-0.427 2.062,-1.497c-0,-0.737 -0.507,-1.376 -1.226,-1.537c-1.904,-0.427 -5.198,-0.622 -6.636,-0.647c-0.037,-0.001 -0.081,-0.002 -0.128,-0.002c-0.05,-0.001 -0.089,-0.001 -0.132,-0.001c-0.044,0 -0.084,0 -0.133,0.001c-0.048,0 -0.091,0.001 -0.129,0.002c-1.438,0.025 -4.732,0.22 -6.636,0.647c-0.719,0.161 -1.225,0.8 -1.225,1.537Z" style="fill:#d85332;fill-rule:nonzero;"/><path d="M24.047,49.147c0.829,0 1.346,-0.896 0.932,-1.614l-1.984,-3.437c-0.414,-0.717 -1.45,-0.717 -1.864,0l-1.984,3.437c-0.415,0.718 0.103,1.614 0.932,1.614l3.968,0Z" style="fill:#d85332;fill-rule:nonzero;"/><path d="M9.985,37.385c-0.26,-0.154 -0.588,0.005 -0.632,0.304c-0.186,1.286 -0.23,4.301 3.002,5.892c3.237,1.594 5.206,0.199 5.929,-0.511c0.19,-0.186 0.164,-0.495 -0.055,-0.646c-1.442,-1.001 -6.597,-4.063 -8.244,-5.039Z" style="fill:#d85332;fill-rule:nonzero;"/><path d="M31.771,43.581c3.2,-1.575 3.188,-4.545 3.007,-5.852c-0.043,-0.31 -0.395,-0.465 -0.654,-0.29c-1.618,1.09 -6.475,4.374 -7.822,5.415c-0.208,0.161 -0.222,0.465 -0.03,0.644c0.65,0.604 2.352,1.632 5.499,0.083Z" style="fill:#d85332;fill-rule:nonzero;"/><path d="M32.783,13.905c-0.008,0.004 -0.012,0.006 -0.021,0.011c-0.265,1.11 -0.352,2.286 -0.844,3.258c-0.358,0.707 -0.815,1.388 -1.626,1.929c-0.6,0.4 -1.626,0.102 -1.846,-0.585l-0.303,-1.497c-0.313,-2.22 -0.287,-2.492 -0.435,-3.904c-0.552,-5.282 -2.724,-9.825 -6.63,-13.117c-0.006,-0.005 -0.413,1.207 -0.578,1.699c-0.046,0.138 -0.38,0.831 -0.445,0.962c-1.379,2.775 -1.107,2.369 -3.151,5.503c-1.473,2.259 -3.49,4.158 -5.196,6.273c-2.805,3.476 -5.87,6.796 -8.255,10.545c-4.261,6.696 -4.498,13.898 -1.157,21.08c2.136,4.589 4.934,7.705 9.344,9.984c0.178,0.092 0.37,-0.086 0.304,-0.276c-0.144,-0.409 -0.218,-0.845 -0.21,-1.29l0.041,-2.111c0.015,-0.785 0.278,-1.545 0.751,-2.171l1.995,-2.642c0.09,-0.12 0.003,-0.283 -0.147,-0.283c-3.716,-0.003 -6.655,-3.133 -6.67,-3.15l-0.001,-0.001c-1.567,-2.058 -3.442,-5.216 -2.143,-8.734c0.985,-2.669 2.26,-4.05 2.818,-4.563c0.108,-0.098 0.285,-0.028 0.292,0.117c0.092,1.729 0.98,2.737 2.556,3.651c1.68,0.975 3.019,1.803 4.73,2.491c2.244,0.902 4.526,2.599 4.888,3.141c0,-0 0.622,0.638 1.093,1.154c0.07,0.077 0.182,0.077 0.252,-0c0.472,-0.516 1.092,-1.154 1.092,-1.154c0.363,-0.542 2.644,-2.239 4.889,-3.141c1.711,-0.688 3.05,-1.516 4.731,-2.491c1.571,-0.911 2.458,-1.915 2.555,-3.633c0.007,-0.153 0.181,-0.236 0.293,-0.133c0.559,0.514 1.833,1.895 2.817,4.561c1.299,3.516 -0.575,6.673 -2.14,8.731c-0.003,0.002 -0.002,0.002 -0.004,0.004c-0.057,0.062 -2.984,3.151 -6.677,3.15c-0.147,0 -0.234,0.16 -0.145,0.277l1.834,2.429c0.641,0.847 0.903,1.606 0.917,2.393l0.041,2.108c0.008,0.407 -0.052,0.808 -0.171,1.187c-0.054,0.172 0.123,0.327 0.283,0.243c6.027,-3.163 10.782,-9.969 11.496,-17.028c1.024,-10.124 -4.323,-22.147 -11.217,-24.977Z" style="fill:#d85332;fill-rule:nonzero;"/></g></g></svg>