<?xml version="1.0" encoding="UTF-8" standalone="no"?>
<!DOCTYPE svg PUBLIC "-//W3C//DTD SVG 1.1//EN" "http://www.w3.org/Graphics/SVG/1.1/DTD/svg11.dtd">
<svg width="100%" height="100%" viewBox="0 0 41 52" version="1.1" xmlns="http://www.w3.org/2000/svg" xmlns:xlink="http://www.w3.org/1999/xlink" xml:space="preserve" xmlns:serif="http://www.serif.com/" style="fill-rule:evenodd;clip-rule:evenodd;stroke-linejoin:round;stroke-miterlimit:2;">
    <g transform="matrix(1,0,0,1,-684.237,-4282.43)">
        <g transform="matrix(1,0,0,3.25569,0,-75.1383)">
            <g transform="matrix(0.345789,0,0,0.352725,574.752,891.709)">
                <g transform="matrix(2,0,0,0.602229,-755.94,1223.06)">
                    <path d="M554.725,142.781C554.725,144.197 556.104,145.196 557.452,144.761C559.788,144.006 563.106,143.034 565.264,142.831C565.406,142.817 565.535,142.817 565.677,142.831C567.834,143.034 571.152,144.006 573.488,144.761C574.836,145.196 576.216,144.197 576.216,142.781C576.216,141.806 575.546,140.961 574.595,140.748C572.076,140.183 567.718,139.925 565.815,139.892C565.766,139.89 565.708,139.889 565.646,139.889C565.58,139.888 565.528,139.888 565.471,139.888C565.413,139.888 565.36,139.888 565.295,139.889C565.232,139.889 565.175,139.89 565.125,139.892C563.223,139.925 558.864,140.183 556.346,140.748C555.395,140.961 554.725,141.806 554.725,142.781Z" style="fill:rgb(159,212,214);fill-rule:nonzero;"/>
                </g>
                <g transform="matrix(2,0,0,0.602229,-755.94,1223.06)">
                    <path d="M568.095,137.202C569.191,137.202 569.876,136.016 569.328,135.067L566.703,130.52C566.155,129.571 564.785,129.571 564.237,130.52L561.612,135.067C561.064,136.016 561.749,137.202 562.845,137.202L568.095,137.202Z" style="fill:rgb(159,212,214);fill-rule:nonzero;"/>
                </g>
                <g transform="matrix(2,0,0,0.602229,-755.94,1223.06)">
                    <path d="M549.491,121.642C549.147,121.438 548.713,121.648 548.656,122.043C548.409,123.745 548.351,127.734 552.627,129.839C556.91,131.947 559.514,130.102 560.471,129.163C560.722,128.916 560.688,128.508 560.398,128.308C558.49,126.984 551.671,122.932 549.491,121.642Z" style="fill:rgb(159,212,214);fill-rule:nonzero;"/>
                </g>
                <g transform="matrix(2,0,0,0.602229,-755.94,1223.06)">
                    <path d="M578.313,129.839C582.547,127.755 582.531,123.825 582.292,122.096C582.235,121.686 581.769,121.482 581.426,121.713C579.286,123.155 572.86,127.5 571.078,128.877C570.803,129.09 570.784,129.492 571.039,129.729C571.898,130.527 574.15,131.888 578.313,129.839Z" style="fill:rgb(159,212,214);fill-rule:nonzero;"/>
                </g>
                <g transform="matrix(2,0,0,0.602229,-755.94,1223.06)">
                    <path d="M579.652,90.579C579.642,90.584 579.636,90.587 579.625,90.593C579.274,92.062 579.159,93.618 578.508,94.903C578.034,95.838 577.429,96.74 576.356,97.455C575.563,97.984 574.205,97.59 573.914,96.681L573.513,94.701C573.1,91.764 573.134,91.404 572.938,89.536C572.208,82.548 569.334,76.538 564.167,72.183C564.159,72.176 563.621,73.78 563.402,74.431C563.341,74.613 562.9,75.53 562.814,75.703C560.989,79.374 561.349,78.837 558.645,82.984C556.696,85.972 554.028,88.485 551.771,91.283C548.06,95.881 544.005,100.273 540.85,105.233C535.213,114.092 534.9,123.619 539.32,133.12C542.145,139.191 545.847,143.314 551.681,146.329C551.917,146.451 552.171,146.215 552.083,145.964C551.893,145.423 551.795,144.846 551.806,144.257L551.859,141.464C551.879,140.426 552.227,139.421 552.853,138.593L555.493,135.097C555.612,134.938 555.496,134.723 555.298,134.723C550.382,134.719 546.494,130.578 546.474,130.555L546.473,130.554C544.4,127.832 541.919,123.654 543.638,118.999C544.941,115.469 546.627,113.641 547.366,112.963C547.508,112.833 547.742,112.926 547.752,113.118C547.873,115.405 549.048,116.739 551.133,117.948C553.356,119.237 555.127,120.333 557.391,121.243C560.36,122.437 563.379,124.682 563.858,125.398C563.858,125.398 564.68,126.242 565.304,126.925C565.396,127.027 565.544,127.027 565.637,126.925C566.261,126.242 567.082,125.398 567.082,125.398C567.562,124.682 570.58,122.437 573.55,121.243C575.813,120.333 577.584,119.237 579.808,117.948C581.886,116.743 583.06,115.414 583.188,113.141C583.198,112.939 583.428,112.829 583.576,112.965C584.316,113.645 586.001,115.473 587.303,118.999C589.021,123.651 586.542,127.828 584.471,130.55C584.468,130.553 584.469,130.553 584.466,130.556C584.391,130.637 580.519,134.724 575.633,134.723C575.438,134.723 575.324,134.934 575.441,135.089L577.868,138.302C578.716,139.423 579.062,140.427 579.081,141.468L579.135,144.257C579.145,144.796 579.066,145.326 578.908,145.828C578.837,146.055 579.072,146.26 579.283,146.149C587.256,141.965 593.547,132.961 594.491,123.622C595.846,110.228 588.773,94.323 579.652,90.579Z" style="fill:rgb(159,212,214);fill-rule:nonzero;"/>
                </g>
            </g>
        </g>
    </g>
</svg>
